<svg id="Layer_1" data-name="Layer 1" xmlns="http://www.w3.org/2000/svg" viewBox="0 0 441.92 151.29"><defs><style>.cls-1{fill:#00a5b5;}.cls-2{fill:#ff9015;}</style></defs><path class="cls-1" d="M84,9.44a2.79,2.79,0,0,0-2.79,2.79V38.15a41.32,41.32,0,0,0-3.87-2.43,47.3,47.3,0,0,0-23.06-5.65,47.34,47.34,0,0,0-23.07,5.65A41.19,41.19,0,0,0,14.88,51.85a47.7,47.7,0,0,0-6,24q0,13.71,5.81,24.11a41.06,41.06,0,0,0,16,16.13,45.61,45.61,0,0,0,22.74,5.72,48.17,48.17,0,0,0,23.3-5.72,40.86,40.86,0,0,0,16.7-16.21c5.1-9.2,6.13-17.58,6.13-32.1V12.23a2.79,2.79,0,0,0-2.79-2.79ZM76.8,92.33a25.78,25.78,0,0,1-10.08,10.16,27.32,27.32,0,0,1-13.3,3.39A24.2,24.2,0,0,1,35,98.05q-7.35-7.81-7.34-22.17,0-9.67,3.54-16.37a24.25,24.25,0,0,1,9.6-10.08A26.43,26.43,0,0,1,53.91,46a26.91,26.91,0,0,1,13.22,3.39A25.15,25.15,0,0,1,77,59.51q3.7,6.71,3.71,16.37T76.8,92.33Z" transform="translate(-8.91 -9.44)"/><path class="cls-1" d="M133.72,118.05a33,33,0,0,1-13.15-10.32,25.83,25.83,0,0,1-4.83-11.31,2.84,2.84,0,0,1,2.8-3.28h13.55a2.77,2.77,0,0,1,2.7,2.08,13.25,13.25,0,0,0,5.05,7.35,19.62,19.62,0,0,0,12.34,3.79q7.75,0,12-3a9,9,0,0,0,4.27-7.66,7.85,7.85,0,0,0-4.76-7.42A89.53,89.53,0,0,0,148.64,83a142.52,142.52,0,0,1-16.3-5.32,28.5,28.5,0,0,1-10.88-7.9q-4.59-5.32-4.6-14a21.84,21.84,0,0,1,4.2-13,27.87,27.87,0,0,1,12-9.27,44.67,44.67,0,0,1,18-3.4q15.16,0,24.43,7.67a26.78,26.78,0,0,1,9.63,17.67,2.83,2.83,0,0,1-2.8,3.21H169.42a2.77,2.77,0,0,1-2.72-2.16,12.76,12.76,0,0,0-4.52-7.35q-4.35-3.55-11.77-3.55-7.26,0-11.13,2.74a8.51,8.51,0,0,0-3.86,7.78,8.21,8.21,0,0,0,2.78,5.64,18.21,18.21,0,0,0,6.08,3.59q3.71,1.38,11,3.48A118.53,118.53,0,0,1,171.13,74a29.86,29.86,0,0,1,10.73,7.82q4.51,5.18,4.68,13.71a22.94,22.94,0,0,1-4.2,13.55,27.75,27.75,0,0,1-11.85,9.36,44.32,44.32,0,0,1-18,3.38A44.81,44.81,0,0,1,133.72,118.05Z" transform="translate(-8.91 -9.44)"/><path class="cls-1" d="M229.89,95.72q0,5,2.34,7.18c1.55,1.45,4.22,2.17,8,2.17h8.48a2.81,2.81,0,0,1,2.81,2.81v9.7a2.81,2.81,0,0,1-2.81,2.81H237q-12.44,0-19-5.81t-6.61-18.86V49.34a2.81,2.81,0,0,0-2.82-2.81H197.45a2.81,2.81,0,0,1-2.81-2.82V34.34a2.81,2.81,0,0,1,2.81-2.81h11.08a2.81,2.81,0,0,0,2.82-2.81V12.25a2.81,2.81,0,0,1,2.81-2.81h12.92a2.81,2.81,0,0,1,2.81,2.81Z" transform="translate(-8.91 -9.44)"/><path class="cls-1" d="M335.76,34.43a31.06,31.06,0,0,1,13,12.9q4.67,8.56,4.68,20.65v49.6a2.81,2.81,0,0,1-2.82,2.81H338a2.81,2.81,0,0,1-2.81-2.81V70.72q0-11.94-6-18.31T312.94,46q-10.32,0-16.37,6.37t-6,18.31v46.86a2.81,2.81,0,0,1-2.82,2.81H275a2.81,2.81,0,0,1-2.81-2.81V34.34A2.81,2.81,0,0,1,275,31.53h12.76a2.81,2.81,0,0,1,2.82,2.81v7.35a30.36,30.36,0,0,1,11.53-8.55A36.88,36.88,0,0,1,317,30.07,39.9,39.9,0,0,1,335.76,34.43Z" transform="translate(-8.91 -9.44)"/><circle class="cls-2" cx="241.8" cy="29.59" r="11.62"/><path class="cls-1" d="M448,31.53H435.14a2.8,2.8,0,0,0-2.62,1.81L407.24,99.27l-24.31-65.9a2.82,2.82,0,0,0-2.64-1.84H365.92a2.81,2.81,0,0,0-2.61,3.86l33.52,85a21.19,21.19,0,0,1-1.24,4.22c-3.88,9.71-11,17-22.47,18.26a3,3,0,0,0-2.57,3c0,1.22-.14,9.78-.14,11.86s1.09,2.94,3.06,2.94a25.76,25.76,0,0,0,4.17-.3c16.06-2.67,25.05-11.15,30.47-23.65,1.49-3.43,2.57-6.07,3.74-8.92l38.77-92.42A2.82,2.82,0,0,0,448,31.53Z" transform="translate(-8.91 -9.44)"/></svg>